{
  "accessors": [
    {
      "bufferView": 2,
      "componentType": 5126,
      "count": 8368,
      "max": [
        54.11040496826172,
        54.07252502441406,
        4.544965744018555
      ],
      "min": [
        -54.11040496826172,
        -54.110328674316406,
        0.008894257247447968
      ],
      "type": "VEC3"
    },
    {
      "bufferView": 2,
      "byteOffset": 100416,
      "componentType": 5126,
      "count": 8368,
      "max": [
        0.9995540976524353,
        0.9992685914039612,
        0.999947726726532
      ],
      "min": [
        -0.9994285106658936,
        -0.9989779591560364,
        -0.9999392032623291
      ],
      "type": "VEC3"
    },
    {
      "bufferView": 1,
      "componentType": 5126,
      "count": 8368,
      "max": [
        0.999824583530426,
        1.0001754760742188
      ],
      "min": [
        0.00017538666725158691,
        -0.0001754164695739746
      ],
      "type": "VEC2"
    },
    {
      "bufferView": 0,
      "componentType": 5125,
      "count": 8370,
      "type": "SCALAR"
    },
    {
      "bufferView": 2,
      "byteOffset": 200832,
      "componentType": 5126,
      "count": 3489,
      "max": [
        30.629749298095703,
        30.76776885986328,
        29.935834884643555
      ],
      "min": [
        -30.88335609436035,
        -30.794757843017578,
        -0.3197697401046753
      ],
      "type": "VEC3"
    },
    {
      "bufferView": 2,
      "byteOffset": 242700,
      "componentType": 5126,
      "count": 3489,
      "max": [
        0.9996834993362427,
        0.9999523162841797,
        0.9999978542327881
      ],
      "min": [
        -0.9998277425765991,
        -0.9999042749404907,
        -0.9970493316650391
      ],
      "type": "VEC3"
    },
    {
      "bufferView": 1,
      "byteOffset": 66944,
      "componentType": 5126,
      "count": 3489,
      "max": [
        1.0,
        1.0
      ],
      "min": [
        0.008059155195951462,
        0.002000028034672141
      ],
      "type": "VEC2"
    },
    {
      "bufferView": 0,
      "byteOffset": 33480,
      "componentType": 5125,
      "count": 16812,
      "type": "SCALAR"
    },
    {
      "bufferView": 2,
      "byteOffset": 284568,
      "componentType": 5126,
      "count": 1192,
      "max": [
        30.58346939086914,
        25.00287437438965,
        29.58523941040039
      ],
      "min": [
        -25.020883560180664,
        -30.71959686279297,
        -0.36450904607772827
      ],
      "type": "VEC3"
    },
    {
      "bufferView": 2,
      "byteOffset": 298872,
      "componentType": 5126,
      "count": 1192,
      "max": [
        0.9999443888664246,
        0.17612415552139282,
        0.9894278049468994
      ],
      "min": [
        -0.2135038822889328,
        -0.9997870922088623,
        -0.9999991059303284
      ],
      "type": "VEC3"
    },
    {
      "bufferView": 1,
      "byteOffset": 94856,
      "componentType": 5126,
      "count": 1192,
      "max": [
        1.7719684839248657,
        1.7894890308380127
      ],
      "min": [
        -0.02642238140106201,
        0.012248009443283081
      ],
      "type": "VEC2"
    },
    {
      "bufferView": 0,
      "byteOffset": 100728,
      "componentType": 5125,
      "count": 4458,
      "type": "SCALAR"
    },
    {
      "bufferView": 2,
      "byteOffset": 313176,
      "componentType": 5126,
      "count": 1956,
      "max": [
        30.766128540039063,
        1.2507743835449219,
        29.77409553527832
      ],
      "min": [
        -0.776801347732544,
        -30.87709617614746,
        -0.14688628911972046
      ],
      "type": "VEC3"
    },
    {
      "bufferView": 2,
      "byteOffset": 336648,
      "componentType": 5126,
      "count": 1956,
      "max": [
        0.9998850226402283,
        0.9996263384819031,
        0.9999991655349731
      ],
      "min": [
        -0.9941061735153198,
        -0.9998872876167297,
        -0.9999973177909851
      ],
      "type": "VEC3"
    },
    {
      "bufferView": 1,
      "byteOffset": 104392,
      "componentType": 5126,
      "count": 1956,
      "max": [
        0.9833853840827942,
        0.9856417775154114
      ],
      "min": [
        0.001999999862164259,
        0.002000028034672141
      ],
      "type": "VEC2"
    },
    {
      "bufferView": 0,
      "byteOffset": 118560,
      "componentType": 5125,
      "count": 9822,
      "type": "SCALAR"
    },
    {
      "bufferView": 2,
      "byteOffset": 360120,
      "componentType": 5126,
      "count": 417,
      "max": [
        30.635347366333008,
        1.3444700241088867,
        29.65302848815918
      ],
      "min": [
        -0.9144134521484375,
        -30.822460174560547,
        0.023753440007567406
      ],
      "type": "VEC3"
    },
    {
      "bufferView": 2,
      "byteOffset": 365124,
      "componentType": 5126,
      "count": 417,
      "max": [
        0.9348251819610596,
        0.9999857544898987,
        0.5710858106613159
      ],
      "min": [
        -0.9999431371688843,
        -0.9606418013572693,
        -0.568692147731781
      ],
      "type": "VEC3"
    },
    {
      "bufferView": 1,
      "byteOffset": 120040,
      "componentType": 5126,
      "count": 417,
      "max": [
        0.9860707521438599,
        0.9963626861572266
      ],
      "min": [
        -0.011906981468200684,
        0.00021466612815856934
      ],
      "type": "VEC2"
    },
    {
      "bufferView": 0,
      "byteOffset": 157848,
      "componentType": 5125,
      "count": 1668,
      "type": "SCALAR"
    },
    {
      "bufferView": 2,
      "byteOffset": 370128,
      "componentType": 5126,
      "count": 1757,
      "max": [
        2.1898350715637207,
        8.217419624328613,
        0.4061233699321747
      ],
      "min": [
        -1.611101508140564,
        -11.916979789733887,
        -0.4076668620109558
      ],
      "type": "VEC3"
    },
    {
      "bufferView": 2,
      "byteOffset": 391212,
      "componentType": 5126,
      "count": 1757,
      "max": [
        1.0,
        0.9791459441184998,
        0.9999882578849792
      ],
      "min": [
        -1.0,
        -0.999969482421875,
        -0.9999293684959412
      ],
      "type": "VEC3"
    },
    {
      "bufferView": 1,
      "byteOffset": 123376,
      "componentType": 5126,
      "count": 1757,
      "max": [
        0.9787845015525818,
        0.9655889272689819
      ],
      "min": [
        0.021215498447418213,
        0.10676518082618713
      ],
      "type": "VEC2"
    },
    {
      "bufferView": 0,
      "byteOffset": 164520,
      "componentType": 5125,
      "count": 2706,
      "type": "SCALAR"
    },
    {
      "bufferView": 2,
      "byteOffset": 412296,
      "componentType": 5126,
      "count": 449,
      "max": [
        0.9724524617195129,
        0.628713071346283,
        0.5667861104011536
      ],
      "min": [
        -1.7746399641036987,
        -9.018856048583984,
        -0.5678502321243286
      ],
      "type": "VEC3"
    },
    {
      "bufferView": 2,
      "byteOffset": 417684,
      "componentType": 5126,
      "count": 449,
      "max": [
        0.9999006390571594,
        0.9998080730438232,
        0.9999998211860657
      ],
      "min": [
        -0.9998717308044434,
        -0.9965440630912781,
        -0.999992311000824
      ],
      "type": "VEC3"
    },
    {
      "bufferView": 1,
      "byteOffset": 137432,
      "componentType": 5126,
      "count": 449,
      "max": [
        0.658552348613739,
        0.9996263980865479
      ],
      "min": [
        0.3838430643081665,
        0.03486938774585724
      ],
      "type": "VEC2"
    },
    {
      "bufferView": 0,
      "byteOffset": 175344,
      "componentType": 5125,
      "count": 2280,
      "type": "SCALAR"
    }
  ],
  "asset": {
    "extras": {
      "author": "Daniele Pagella (https://sketchfab.com/DanielePagella)",
      "license": "CC-BY-4.0 (http://creativecommons.org/licenses/by/4.0/)",
      "source": "https://sketchfab.com/3d-models/sweet-cheese-1c78c46ba0f9430882139be0afee6bb9",
      "title": "Sweet cheese"
    },
    "generator": "Sketchfab-12.67.0",
    "version": "2.0"
  },
  "bufferViews": [
    {
      "buffer": 0,
      "byteLength": 184464,
      "name": "floatBufferViews",
      "target": 34963
    },
    {
      "buffer": 0,
      "byteLength": 141024,
      "byteOffset": 184464,
      "byteStride": 8,
      "name": "floatBufferViews",
      "target": 34962
    },
    {
      "buffer": 0,
      "byteLength": 423072,
      "byteOffset": 325488,
      "byteStride": 12,
      "name": "floatBufferViews",
      "target": 34962
    }
  ],
  "buffers": [
    {
      "byteLength": 748560,
      "uri": "scene.bin"
    }
  ],
  "images": [
    {
      "uri": "textures/Tagliere_baseColor.jpeg"
    },
    {
      "uri": "textures/Material_27_baseColor.jpeg"
    },
    {
      "uri": "textures/Material_28_baseColor.jpeg"
    },
    {
      "uri": "textures/Material_29_baseColor.jpeg"
    }
  ],
  "materials": [
    {
      "doubleSided": true,
      "name": "Tagliere",
      "pbrMetallicRoughness": {
        "baseColorTexture": {
          "index": 0
        },
        "metallicFactor": 0.0,
        "roughnessFactor": 0.6
      }
    },
    {
      "doubleSided": true,
      "name": "UnwrapChecker",
      "pbrMetallicRoughness": {
        "baseColorFactor": [
          0.6994024055,
          0.5916963621,
          0.4048716291,
          1.0
        ],
        "metallicFactor": 0.0,
        "roughnessFactor": 0.6
      }
    },
    {
      "doubleSided": true,
      "name": "Material_27",
      "pbrMetallicRoughness": {
        "baseColorTexture": {
          "index": 1
        },
        "metallicFactor": 0.0,
        "roughnessFactor": 0.6
      }
    },
    {
      "doubleSided": true,
      "name": "Material_28",
      "pbrMetallicRoughness": {
        "baseColorTexture": {
          "index": 2
        },
        "metallicFactor": 0.0,
        "roughnessFactor": 0.6
      }
    },
    {
      "doubleSided": true,
      "name": "Material_29",
      "pbrMetallicRoughness": {
        "baseColorFactor": [
          0.0992759146,
          0.0992759146,
          0.0992759146,
          1.0
        ],
        "baseColorTexture": {
          "index": 3
        },
        "metallicFactor": 0.0,
        "roughnessFactor": 0.6
      }
    }
  ],
  "meshes": [
    {
      "name": "Cylinder003_Tagliere_0",
      "primitives": [
        {
          "attributes": {
            "NORMAL": 1,
            "POSITION": 0,
            "TEXCOORD_0": 2
          },
          "indices": 3,
          "material": 0,
          "mode": 4
        }
      ]
    },
    {
      "name": "Cylinder005_UnwrapChecker_0",
      "primitives": [
        {
          "attributes": {
            "NORMAL": 5,
            "POSITION": 4,
            "TEXCOORD_0": 6
          },
          "indices": 7,
          "material": 1,
          "mode": 4
        }
      ]
    },
    {
      "name": "Cylinder005_Material #27_0",
      "primitives": [
        {
          "attributes": {
            "NORMAL": 9,
            "POSITION": 8,
            "TEXCOORD_0": 10
          },
          "indices": 11,
          "material": 2,
          "mode": 4
        }
      ]
    },
    {
      "name": "Object001_UnwrapChecker_0",
      "primitives": [
        {
          "attributes": {
            "NORMAL": 13,
            "POSITION": 12,
            "TEXCOORD_0": 14
          },
          "indices": 15,
          "material": 1,
          "mode": 4
        }
      ]
    },
    {
      "name": "Object001_Material #27_0",
      "primitives": [
        {
          "attributes": {
            "NORMAL": 17,
            "POSITION": 16,
            "TEXCOORD_0": 18
          },
          "indices": 19,
          "material": 2,
          "mode": 4
        }
      ]
    },
    {
      "name": "Plane02_Material #28_0",
      "primitives": [
        {
          "attributes": {
            "NORMAL": 21,
            "POSITION": 20,
            "TEXCOORD_0": 22
          },
          "indices": 23,
          "material": 3,
          "mode": 4
        }
      ]
    },
    {
      "name": "Box02_Material #29_0",
      "primitives": [
        {
          "attributes": {
            "NORMAL": 25,
            "POSITION": 24,
            "TEXCOORD_0": 26
          },
          "indices": 27,
          "material": 4,
          "mode": 4
        }
      ]
    }
  ],
  "nodes": [
    {
      "children": [
        1
      ],
      "matrix": [
        1.0,
        0.0,
        0.0,
        0.0,
        0.0,
        -2.220446049250313e-16,
        1.0,
        0.0,
        0.0,
        -1.0,
        -2.220446049250313e-16,
        0.0,
        -0.11341699957847595,
        -22.521169662475586,
        1.0141197443008372,
        1.0
      ],
      "name": "Sketchfab_model"
    },
    {
      "children": [
        2
      ],
      "matrix": [
        1.0,
        0.0,
        0.0,
        0.0,
        0.0,
        -1.0,
        0.0,
        0.0,
        0.0,
        0.0,
        -1.0,
        0.0,
        0.0,
        0.0,
        0.0,
        1.0
      ],
      "name": "15e7ca340a8e4f77b9f960bf5bd62ce2.fbx"
    },
    {
      "children": [
        3,
        5,
        8,
        11,
        13
      ],
      "name": "RootNode"
    },
    {
      "children": [
        4
      ],
      "matrix": [
        1.0,
        0.0,
        0.0,
        0.0,
        0.0,
        1.0,
        0.0,
        0.0,
        0.0,
        0.0,
        1.0,
        0.0,
        0.0,
        1.931352926476393e-07,
        -4.418420314788818,
        1.0
      ],
      "name": "Cylinder003"
    },
    {
      "mesh": 0,
      "name": "Cylinder003_Tagliere_0"
    },
    {
      "children": [
        6,
        7
      ],
      "matrix": [
        1.0,
        0.0,
        0.0,
        0.0,
        0.0,
        1.0,
        0.0,
        0.0,
        0.0,
        0.0,
        1.0,
        0.0,
        -15.239948272705078,
        6.7305803298950195,
        0.0,
        1.0
      ],
      "name": "Cylinder005"
    },
    {
      "mesh": 1,
      "name": "Cylinder005_UnwrapChecker_0"
    },
    {
      "mesh": 2,
      "name": "Cylinder005_Material #27_0"
    },
    {
      "children": [
        9,
        10
      ],
      "matrix": [
        0.25350007491383475,
        0.6373015065368351,
        -0.7277255676314803,
        0.0,
        0.28298727727628614,
        0.6705298024725052,
        0.6857900443254754,
        0.0,
        0.9250167095347167,
        -0.37978490460004255,
        -0.010368862980195459,
        0.0,
        1.9555034637451172,
        -19.000003814697266,
        31.24365234375,
        1.0
      ],
      "name": "Object001"
    },
    {
      "mesh": 3,
      "name": "Object001_UnwrapChecker_0"
    },
    {
      "mesh": 4,
      "name": "Object001_Material #27_0"
    },
    {
      "children": [
        12
      ],
      "matrix": [
        2.1715313749759035,
        1.467947285402293,
        0.01675971171114087,
        -0.0,
        -1.467017488410266,
        2.170991240478367,
        -0.07316321379910984,
        -0.0,
        0.05485459269355211,
        -0.05123201536163158,
        -2.620126883840504,
        -0.0,
        11.517724990844727,
        32.21905517578125,
        0.39776718616485596,
        1.0
      ],
      "name": "Plane02"
    },
    {
      "mesh": 5,
      "name": "Plane02_Material #28_0"
    },
    {
      "children": [
        14
      ],
      "matrix": [
        2.171531012087656,
        1.4679473977190522,
        0.016759604602266644,
        0.0,
        -1.4670179921769806,
        2.170991457715825,
        -0.073163750008303,
        0.0,
        -0.05485480380833049,
        0.0512325015195292,
        2.6201268699146114,
        0.0,
        32.805580139160156,
        7.232395172119141,
        1.3320167064666748,
        1.0
      ],
      "name": "Box02"
    },
    {
      "mesh": 6,
      "name": "Box02_Material #29_0"
    }
  ],
  "samplers": [
    {
      "magFilter": 9729,
      "minFilter": 9987,
      "wrapS": 10497,
      "wrapT": 10497
    },
    {
      "magFilter": 9729,
      "minFilter": 9987,
      "wrapS": 33648,
      "wrapT": 10497
    }
  ],
  "scene": 0,
  "scenes": [
    {
      "name": "Sketchfab_Scene",
      "nodes": [
        0
      ]
    }
  ],
  "textures": [
    {
      "sampler": 0,
      "source": 0
    },
    {
      "sampler": 1,
      "source": 1
    },
    {
      "sampler": 0,
      "source": 2
    },
    {
      "sampler": 0,
      "source": 3
    }
  ]
}
