{
  "accessors": [
    {
      "bufferView": 2,
      "componentType": 5126,
      "count": 1886,
      "max": [
        3.9370903968811035,
        4.190906524658203,
        1.079769492149353
      ],
      "min": [
        -1.079769253730774,
        -1.3712973594665527,
        -1.0797693729400635
      ],
      "type": "VEC3"
    },
    {
      "bufferView": 2,
      "byteOffset": 22632,
      "componentType": 5126,
      "count": 1886,
      "max": [
        0.9998886585235596,
        0.9994254112243652,
        0.9998886585235596
      ],
      "min": [
        -0.9998886585235596,
        -0.9779157042503357,
        -0.9998886585235596
      ],
      "type": "VEC3"
    },
    {
      "bufferView": 1,
      "componentType": 5126,
      "count": 1886,
      "max": [
        1.0066678524017334,
        0.9900000095367432
      ],
      "min": [
        -0.006667924113571644,
        0.46022284030914307
      ],
      "type": "VEC2"
    },
    {
      "bufferView": 0,
      "componentType": 5125,
      "count": 8616,
      "type": "SCALAR"
    },
    {
      "bufferView": 2,
      "byteOffset": 45264,
      "componentType": 5126,
      "count": 586,
      "max": [
        3.9027276039123535,
        2.734279155731201,
        1.0454055070877075
      ],
      "min": [
        -1.045404076576233,
        1.3009463548660278,
        -1.045405387878418
      ],
      "type": "VEC3"
    },
    {
      "bufferView": 2,
      "byteOffset": 52296,
      "componentType": 5126,
      "count": 586,
      "max": [
        0.9998886585235596,
        0.9986832141876221,
        0.9998886585235596
      ],
      "min": [
        -0.9998886585235596,
        -1.0,
        -0.9998886585235596
      ],
      "type": "VEC3"
    },
    {
      "bufferView": 1,
      "byteOffset": 15088,
      "componentType": 5126,
      "count": 586,
      "max": [
        0.47266528010368347,
        0.9726652503013611
      ],
      "min": [
        0.02733474411070347,
        0.5273345708847046
      ],
      "type": "VEC2"
    },
    {
      "bufferView": 0,
      "byteOffset": 34464,
      "componentType": 5125,
      "count": 3432,
      "type": "SCALAR"
    },
    {
      "bufferView": 2,
      "byteOffset": 59328,
      "componentType": 5126,
      "count": 509,
      "max": [
        1.0,
        6.645484924316406,
        1.0
      ],
      "min": [
        -1.0,
        -1.0,
        -1.0
      ],
      "type": "VEC3"
    },
    {
      "bufferView": 2,
      "byteOffset": 65436,
      "componentType": 5126,
      "count": 509,
      "max": [
        1.0,
        0.7377113103866577,
        1.0
      ],
      "min": [
        -1.0,
        -0.9779146313667297,
        -1.0
      ],
      "type": "VEC3"
    },
    {
      "bufferView": 1,
      "byteOffset": 19776,
      "componentType": 5126,
      "count": 509,
      "max": [
        1.0,
        0.9900000095367432
      ],
      "min": [
        -1.862645149230957e-07,
        -0.32253503799438477
      ],
      "type": "VEC2"
    },
    {
      "bufferView": 0,
      "byteOffset": 48192,
      "componentType": 5125,
      "count": 1944,
      "type": "SCALAR"
    },
    {
      "bufferView": 2,
      "byteOffset": 71544,
      "componentType": 5126,
      "count": 228,
      "max": [
        0.36710911989212036,
        6.645484924316406,
        0.367110013961792
      ],
      "min": [
        -0.36711105704307556,
        4.8111772537231445,
        -0.367110013961792
      ],
      "type": "VEC3"
    },
    {
      "bufferView": 2,
      "byteOffset": 74280,
      "componentType": 5126,
      "count": 228,
      "max": [
        0.9968759417533875,
        0.9779146313667297,
        0.9968759417533875
      ],
      "min": [
        -0.9968759417533875,
        -0.5017106533050537,
        -0.9968759417533875
      ],
      "type": "VEC3"
    },
    {
      "bufferView": 1,
      "byteOffset": 23848,
      "componentType": 5126,
      "count": 228,
      "max": [
        0.3501739501953125,
        0.8501739501953125
      ],
      "min": [
        0.1498260349035263,
        0.6498261094093323
      ],
      "type": "VEC2"
    },
    {
      "bufferView": 0,
      "byteOffset": 55968,
      "componentType": 5125,
      "count": 1152,
      "type": "SCALAR"
    },
    {
      "bufferView": 2,
      "byteOffset": 77016,
      "componentType": 5126,
      "count": 22,
      "max": [
        1.0,
        2.7765398025512695,
        0.9659258127212524
      ],
      "min": [
        0.258819043636322,
        0.6212457418441772,
        -0.9659258127212524
      ],
      "type": "VEC3"
    },
    {
      "bufferView": 2,
      "byteOffset": 77280,
      "componentType": 5126,
      "count": 22,
      "max": [
        1.0,
        0.0,
        0.9659304022789001
      ],
      "min": [
        0.258802205324173,
        0.0,
        -0.9659304022789001
      ],
      "type": "VEC3"
    },
    {
      "bufferView": 1,
      "byteOffset": 25672,
      "componentType": 5126,
      "count": 22,
      "max": [
        0.9967620372772217,
        0.9779847264289856
      ],
      "min": [
        0.002689927816390991,
        0.01043403148651123
      ],
      "type": "VEC2"
    },
    {
      "bufferView": 0,
      "byteOffset": 60576,
      "componentType": 5125,
      "count": 60,
      "type": "SCALAR"
    },
    {
      "bufferView": 2,
      "byteOffset": 77544,
      "componentType": 5126,
      "count": 1067,
      "max": [
        1.8946053981781006,
        7.119260787963867,
        1.9976811408996582
      ],
      "min": [
        -3.157956600189209,
        -6.044609069824219,
        -11.338602066040039
      ],
      "type": "VEC3"
    },
    {
      "bufferView": 2,
      "byteOffset": 90348,
      "componentType": 5126,
      "count": 1067,
      "max": [
        0.9993664026260376,
        0.9861054420471191,
        0.9969518184661865
      ],
      "min": [
        -0.9993664026260376,
        -0.9861054420471191,
        -1.0
      ],
      "type": "VEC3"
    },
    {
      "bufferView": 1,
      "byteOffset": 25848,
      "componentType": 5126,
      "count": 1067,
      "max": [
        0.9714050889015198,
        0.9799615740776062
      ],
      "min": [
        0.022007465362548828,
        0.03223627805709839
      ],
      "type": "VEC2"
    },
    {
      "bufferView": 0,
      "byteOffset": 60816,
      "componentType": 5125,
      "count": 3978,
      "type": "SCALAR"
    },
    {
      "bufferView": 2,
      "byteOffset": 103152,
      "componentType": 5126,
      "count": 138,
      "max": [
        -1.1957347393035889,
        -1.2966639995574951,
        0.7287240028381348
      ],
      "min": [
        -3.784926414489746,
        -5.103812217712402,
        -2.9058024883270264
      ],
      "type": "VEC3"
    },
    {
      "bufferView": 2,
      "byteOffset": 104808,
      "componentType": 5126,
      "count": 138,
      "max": [
        0.9999562501907349,
        0.9989891648292542,
        0.9920085072517395
      ],
      "min": [
        -0.9691817164421082,
        -0.9989891648292542,
        -0.9920085072517395
      ],
      "type": "VEC3"
    },
    {
      "bufferView": 1,
      "byteOffset": 34384,
      "componentType": 5126,
      "count": 138,
      "max": [
        0.4783531427383423,
        0.9719693660736084
      ],
      "min": [
        0.4219192564487457,
        0.6936641931533813
      ],
      "type": "VEC2"
    },
    {
      "bufferView": 0,
      "byteOffset": 76728,
      "componentType": 5125,
      "count": 408,
      "type": "SCALAR"
    },
    {
      "bufferView": 2,
      "byteOffset": 106464,
      "componentType": 5126,
      "count": 1445,
      "max": [
        0.4516332149505615,
        -1.3312201499938965,
        0.29582878947257996
      ],
      "min": [
        -3.193588972091675,
        -5.103812217712402,
        -3.1270482540130615
      ],
      "type": "VEC3"
    },
    {
      "bufferView": 2,
      "byteOffset": 123804,
      "componentType": 5126,
      "count": 1445,
      "max": [
        0.9958758354187012,
        0.9993232488632202,
        0.9987249970436096
      ],
      "min": [
        -0.9960356950759888,
        -0.9997830390930176,
        -0.9987404942512512
      ],
      "type": "VEC3"
    },
    {
      "bufferView": 1,
      "byteOffset": 35488,
      "componentType": 5126,
      "count": 1445,
      "max": [
        0.945814847946167,
        0.9571719169616699
      ],
      "min": [
        0.4531692564487457,
        0.5109574794769287
      ],
      "type": "VEC2"
    },
    {
      "bufferView": 0,
      "byteOffset": 78360,
      "componentType": 5125,
      "count": 5460,
      "type": "SCALAR"
    },
    {
      "bufferView": 2,
      "byteOffset": 141144,
      "componentType": 5126,
      "count": 580,
      "max": [
        0.8000872731208801,
        3.1320531368255615,
        1.2205240726470947
      ],
      "min": [
        -2.5616350173950195,
        -1.0,
        -7.925867557525635
      ],
      "type": "VEC3"
    },
    {
      "bufferView": 2,
      "byteOffset": 148104,
      "componentType": 5126,
      "count": 580,
      "max": [
        0.9221252202987671,
        1.0,
        1.0
      ],
      "min": [
        -0.9221252202987671,
        -1.0,
        -1.0
      ],
      "type": "VEC3"
    },
    {
      "bufferView": 1,
      "byteOffset": 47048,
      "componentType": 5126,
      "count": 580,
      "max": [
        0.8679275512695313,
        0.8969614505767822
      ],
      "min": [
        0.41623982787132263,
        0.419813871383667
      ],
      "type": "VEC2"
    },
    {
      "bufferView": 0,
      "byteOffset": 100200,
      "componentType": 5125,
      "count": 1620,
      "type": "SCALAR"
    },
    {
      "bufferView": 2,
      "byteOffset": 155064,
      "componentType": 5126,
      "count": 672,
      "max": [
        1.3528761863708496,
        0.8978912234306335,
        2.670921564102173
      ],
      "min": [
        -9.94161605834961,
        -0.24185842275619507,
        -2.467886209487915
      ],
      "type": "VEC3"
    },
    {
      "bufferView": 2,
      "byteOffset": 163128,
      "componentType": 5126,
      "count": 672,
      "max": [
        0.898488461971283,
        0.9075209498405457,
        0.9378313422203064
      ],
      "min": [
        -0.898488461971283,
        -0.9075209498405457,
        -0.9378313422203064
      ],
      "type": "VEC3"
    },
    {
      "bufferView": 1,
      "byteOffset": 51688,
      "componentType": 5126,
      "count": 672,
      "max": [
        0.9989989995956421,
        0.9989989995956421
      ],
      "min": [
        0.0010010009864345193,
        0.0010010004043579102
      ],
      "type": "VEC2"
    },
    {
      "bufferView": 0,
      "byteOffset": 106680,
      "componentType": 5125,
      "count": 1260,
      "type": "SCALAR"
    }
  ],
  "asset": {
    "extras": {
      "author": "itsjustcavan (https://sketchfab.com/itsjustcavan)",
      "license": "CC-BY-4.0 (http://creativecommons.org/licenses/by/4.0/)",
      "source": "https://sketchfab.com/3d-models/charcuterie-board-for-oncyber-spaces-be21bdac1e394d9d8a81fc9f50dfa856",
      "title": "Charcuterie board for OnCyber spaces"
    },
    "generator": "Sketchfab-14.62.0",
    "version": "2.0"
  },
  "bufferViews": [
    {
      "buffer": 0,
      "byteLength": 111720,
      "name": "floatBufferViews",
      "target": 34963
    },
    {
      "buffer": 0,
      "byteLength": 57064,
      "byteOffset": 111720,
      "byteStride": 8,
      "name": "floatBufferViews",
      "target": 34962
    },
    {
      "buffer": 0,
      "byteLength": 171192,
      "byteOffset": 168784,
      "byteStride": 12,
      "name": "floatBufferViews",
      "target": 34962
    }
  ],
  "buffers": [
    {
      "byteLength": 339976,
      "uri": "scene.bin"
    }
  ],
  "images": [
    {
      "uri": "textures/Material.004_baseColor.jpeg"
    },
    {
      "uri": "textures/baked_FLAT_baseColor.png"
    },
    {
      "uri": "textures/bread_baseColor.png"
    }
  ],
  "materials": [
    {
      "alphaMode": "BLEND",
      "doubleSided": true,
      "name": "glass",
      "pbrMetallicRoughness": {
        "baseColorFactor": [
          0.372899,
          0.372899,
          0.372899,
          0.422222
        ],
        "metallicFactor": 0.0888889,
        "roughnessFactor": 0.0
      }
    },
    {
      "alphaMode": "BLEND",
      "doubleSided": true,
      "name": "red_wine",
      "pbrMetallicRoughness": {
        "baseColorFactor": [
          0.0151035,
          0.0,
          0.00188825,
          0.955556
        ],
        "metallicFactor": 0.0,
        "roughnessFactor": 0.0222222
      }
    },
    {
      "doubleSided": true,
      "name": "Material.002",
      "pbrMetallicRoughness": {
        "baseColorFactor": [
          0.0,
          0.0,
          0.0,
          1.0
        ],
        "metallicFactor": 0.0,
        "roughnessFactor": 0.0
      }
    },
    {
      "doubleSided": true,
      "name": "Material.003",
      "pbrMetallicRoughness": {
        "baseColorFactor": [
          0.114935,
          0.011329,
          0.00693568,
          1.0
        ],
        "roughnessFactor": 0.5
      }
    },
    {
      "doubleSided": true,
      "name": "Material.004",
      "pbrMetallicRoughness": {
        "baseColorTexture": {
          "index": 0
        },
        "metallicFactor": 0.0
      }
    },
    {
      "doubleSided": true,
      "name": "baked_FLAT",
      "pbrMetallicRoughness": {
        "baseColorTexture": {
          "index": 1
        },
        "metallicFactor": 0.0,
        "roughnessFactor": 0.90303
      }
    },
    {
      "doubleSided": true,
      "name": "baked_metal",
      "pbrMetallicRoughness": {
        "baseColorTexture": {
          "index": 1
        },
        "roughnessFactor": 0.147475
      }
    },
    {
      "doubleSided": true,
      "name": "baked_gloss",
      "pbrMetallicRoughness": {
        "baseColorTexture": {
          "index": 1
        },
        "metallicFactor": 0.0,
        "roughnessFactor": 0.069697
      }
    },
    {
      "doubleSided": true,
      "name": "semi_gloss",
      "pbrMetallicRoughness": {
        "baseColorTexture": {
          "index": 1
        },
        "metallicFactor": 0.0,
        "roughnessFactor": 0.400205
      }
    },
    {
      "doubleSided": true,
      "name": "bread",
      "pbrMetallicRoughness": {
        "baseColorTexture": {
          "index": 2
        },
        "metallicFactor": 0.0
      }
    }
  ],
  "meshes": [
    {
      "name": "Object_0",
      "primitives": [
        {
          "attributes": {
            "NORMAL": 1,
            "POSITION": 0,
            "TEXCOORD_0": 2
          },
          "indices": 3,
          "material": 0,
          "mode": 4
        }
      ]
    },
    {
      "name": "Object_1",
      "primitives": [
        {
          "attributes": {
            "NORMAL": 5,
            "POSITION": 4,
            "TEXCOORD_0": 6
          },
          "indices": 7,
          "material": 1,
          "mode": 4
        }
      ]
    },
    {
      "name": "Object_2",
      "primitives": [
        {
          "attributes": {
            "NORMAL": 9,
            "POSITION": 8,
            "TEXCOORD_0": 10
          },
          "indices": 11,
          "material": 2,
          "mode": 4
        }
      ]
    },
    {
      "name": "Object_3",
      "primitives": [
        {
          "attributes": {
            "NORMAL": 13,
            "POSITION": 12,
            "TEXCOORD_0": 14
          },
          "indices": 15,
          "material": 3,
          "mode": 4
        }
      ]
    },
    {
      "name": "Object_4",
      "primitives": [
        {
          "attributes": {
            "NORMAL": 17,
            "POSITION": 16,
            "TEXCOORD_0": 18
          },
          "indices": 19,
          "material": 4,
          "mode": 4
        }
      ]
    },
    {
      "name": "Object_5",
      "primitives": [
        {
          "attributes": {
            "NORMAL": 21,
            "POSITION": 20,
            "TEXCOORD_0": 22
          },
          "indices": 23,
          "material": 5,
          "mode": 4
        }
      ]
    },
    {
      "name": "Object_6",
      "primitives": [
        {
          "attributes": {
            "NORMAL": 25,
            "POSITION": 24,
            "TEXCOORD_0": 26
          },
          "indices": 27,
          "material": 6,
          "mode": 4
        }
      ]
    },
    {
      "name": "Object_7",
      "primitives": [
        {
          "attributes": {
            "NORMAL": 29,
            "POSITION": 28,
            "TEXCOORD_0": 30
          },
          "indices": 31,
          "material": 7,
          "mode": 4
        }
      ]
    },
    {
      "name": "Object_8",
      "primitives": [
        {
          "attributes": {
            "NORMAL": 33,
            "POSITION": 32,
            "TEXCOORD_0": 34
          },
          "indices": 35,
          "material": 8,
          "mode": 4
        }
      ]
    },
    {
      "name": "Object_9",
      "primitives": [
        {
          "attributes": {
            "NORMAL": 37,
            "POSITION": 36,
            "TEXCOORD_0": 38
          },
          "indices": 39,
          "material": 9,
          "mode": 4
        }
      ]
    }
  ],
  "nodes": [
    {
      "children": [
        1
      ],
      "matrix": [
        0.04964650049805641,
        0.0,
        0.0,
        0.0,
        0.0,
        1.1023737589001306e-17,
        -0.04964650049805641,
        0.0,
        0.0,
        0.04964650049805641,
        1.1023737589001306e-17,
        0.0,
        0.0,
        0.0,
        0.0,
        1.0
      ],
      "name": "Sketchfab_model"
    },
    {
      "children": [
        2
      ],
      "name": "root"
    },
    {
      "children": [
        3,
        6,
        10,
        15
      ],
      "matrix": [
        1.0,
        0.0,
        0.0,
        0.0,
        0.0,
        2.220446049250313e-16,
        1.0,
        0.0,
        0.0,
        -1.0,
        2.220446049250313e-16,
        0.0,
        0.0,
        0.0,
        0.0,
        1.0
      ],
      "name": "GLTF_SceneRootNode"
    },
    {
      "children": [
        4,
        5
      ],
      "matrix": [
        0.0,
        0.0,
        -0.8098260164260864,
        0.0,
        0.0,
        0.8098260164260864,
        0.0,
        0.0,
        0.8098260164260864,
        0.0,
        0.0,
        0.0,
        -3.169041633605957,
        1.1170275211334229,
        -4.81032657623291,
        1.0
      ],
      "name": "wine glass_0"
    },
    {
      "mesh": 0,
      "name": "Object_4"
    },
    {
      "mesh": 1,
      "name": "Object_5"
    },
    {
      "children": [
        7,
        8,
        9
      ],
      "matrix": [
        0.9307511133888048,
        0.0,
        -0.3656533398254422,
        0.0,
        0.0,
        1.0,
        0.0,
        0.0,
        0.3656533398254422,
        0.0,
        0.9307511133888048,
        0.0,
        -3.2305822372436523,
        0.9870821833610535,
        -1.822091817855835,
        1.0
      ],
      "name": "wine bottle_1"
    },
    {
      "mesh": 2,
      "name": "Object_7"
    },
    {
      "mesh": 3,
      "name": "Object_8"
    },
    {
      "mesh": 4,
      "name": "Object_9"
    },
    {
      "children": [
        11,
        12,
        13,
        14
      ],
      "matrix": [
        0.043277112995655245,
        -0.4667991770537257,
        0.08221238307346322,
        0.0,
        0.583250710782135,
        5.538221253707843e-08,
        -0.30702651011087123,
        0.0,
        0.3531524060683269,
        0.15089496709842712,
        0.6708749682113416,
        0.0,
        2.4969348907470703,
        0.6121244430541992,
        0.12502160668373108,
        1.0
      ],
      "name": "cheese board_2"
    },
    {
      "mesh": 5,
      "name": "Object_11"
    },
    {
      "mesh": 6,
      "name": "Object_12"
    },
    {
      "mesh": 7,
      "name": "Object_13"
    },
    {
      "mesh": 8,
      "name": "Object_14"
    },
    {
      "children": [
        16
      ],
      "matrix": [
        -0.3977355399194428,
        0.0,
        -0.033114647704583576,
        0.0,
        0.0,
        0.39911165833473206,
        0.0,
        0.0,
        0.033114647704583576,
        0.0,
        -0.3977355399194428,
        0.0,
        -0.6151831746101379,
        0.454246461391449,
        -6.886590480804443,
        1.0
      ],
      "name": "Bread_3"
    },
    {
      "mesh": 9,
      "name": "Object_16"
    }
  ],
  "samplers": [
    {
      "magFilter": 9729,
      "minFilter": 9987,
      "wrapS": 10497,
      "wrapT": 10497
    }
  ],
  "scene": 0,
  "scenes": [
    {
      "name": "Sketchfab_Scene",
      "nodes": [
        0
      ]
    }
  ],
  "textures": [
    {
      "sampler": 0,
      "source": 0
    },
    {
      "sampler": 0,
      "source": 1
    },
    {
      "sampler": 0,
      "source": 2
    }
  ]
}
